<svg width="40" height="40" viewBox="0 0 40 40" fill="none" xmlns="http://www.w3.org/2000/svg">
<path fill-rule="evenodd" clip-rule="evenodd" d="M3.04246 22.6257L8.25477 0.0390069H21.1118C47.0227 -0.957516 34.1902 17.4646 30.278 18.1327C33.7381 18.488 35.0113 22.6257 35.0113 22.6257H38.1386C38.1386 22.6257 39.5286 40 21.1118 40H2L6.16984 22.6257H3.04246ZM17.4285 14.6118L18.471 9.74696C18.471 9.74696 21.9458 9.39947 21.9458 11.8319C21.9458 14.2643 17.4285 14.6118 17.4285 14.6118ZM18.1977 23.6709L16.5939 30.5962C16.5939 30.5962 23.5437 30.1016 23.5437 26.6389C23.5437 23.1763 18.1977 23.6709 18.1977 23.6709Z" fill="#09E0A0"/>
</svg>
