<svg width="40" height="41" viewBox="0 0 40 41" fill="none" xmlns="http://www.w3.org/2000/svg">
<g id="mini">
<path id="Subtract" fill-rule="evenodd" clip-rule="evenodd" d="M3.04246 23.1257L8.25477 0.539007H21.1118C47.0227 -0.457516 34.1902 17.9646 30.278 18.6327C33.7381 18.988 35.0113 23.1257 35.0113 23.1257H38.1386C38.1386 23.1257 39.5286 40.5 21.1118 40.5H2L6.16984 23.1257H3.04246ZM17.4285 15.1118L18.471 10.247C18.471 10.247 21.9458 9.89947 21.9458 12.3319C21.9458 14.7643 17.4285 15.1118 17.4285 15.1118ZM18.1977 24.1709L16.5939 31.0962C16.5939 31.0962 23.5437 30.6016 23.5437 27.1389C23.5437 23.6763 18.1977 24.1709 18.1977 24.1709Z" fill="#181B1E"/>
</g>
</svg>
